<?xml version="1.0" encoding="utf-8"?>
<!-- Generator: Adobe Illustrator 25.2.3, SVG Export Plug-In . SVG Version: 6.00 Build 0)  -->
<svg version="1.1" xmlns="http://www.w3.org/2000/svg" xmlns:xlink="http://www.w3.org/1999/xlink" x="0px" y="0px"
	 viewBox="0 0 576 195.05" style="enable-background:new 0 0 576 195.05;" xml:space="preserve">
<style type="text/css">
	.st0{fill:#FFFFFF;}
	.st1{fill:#CED0D1;}
	.st2{fill:#EEB21E;}
	.st3{fill:#727073;}
	.st4{fill:#717073;}
	.st5{fill:#CDCFD0;}
</style>
<g id="Layer_1">
</g>
<g id="Layer_6">
</g>
<g id="Layer_9">
</g>
<g id="Layer_7">
</g>
<g id="Layer_8">
</g>
<g id="Layer_5">
</g>
<g id="Layer_4">
</g>
<g id="Layer_3">
</g>
<g id="Layer_2">
	<g>
		<path class="st4" d="M565.54,95.12c-3.38,0-6.12-2.75-6.12-6.12c0-3.38,2.75-6.12,6.12-6.12c3.38,0,6.12,2.75,6.12,6.12
			C571.67,92.37,568.92,95.12,565.54,95.12z M565.54,83.39c-3.09,0-5.61,2.52-5.61,5.61c0,3.09,2.52,5.61,5.61,5.61
			s5.61-2.52,5.61-5.61C571.15,85.9,568.64,83.39,565.54,83.39z"/>
		<g>
			<path class="st4" d="M563.05,92.51v-6.82h3.55c0.7,0,1.23,0.18,1.58,0.54c0.35,0.36,0.53,0.83,0.53,1.4
				c0,0.47-0.11,0.87-0.33,1.21c-0.22,0.33-0.53,0.57-0.92,0.72l1.57,2.95h-1.05l-1.48-2.81H564v2.81H563.05z M564,88.87h2.55
				c0.36,0,0.66-0.11,0.88-0.33c0.22-0.22,0.33-0.52,0.33-0.9c0-0.35-0.1-0.63-0.3-0.82c-0.2-0.2-0.51-0.3-0.91-0.3H564V88.87z"/>
		</g>
		<g>
			<path class="st4" d="M196.51,90.05v13.69h-1.37c-1.1-4.25-2.85-7.38-5.26-9.39c-2.41-2.01-5.63-3.01-9.64-3.01
				c-5.22,0-9.35,1.88-12.4,5.63c-3.05,3.76-4.58,8.76-4.58,15.02c0,6.86,1.61,12.38,4.83,16.57c3.22,4.19,7.44,6.28,12.65,6.28
				c7.22,0,12.56-3.36,16-10.09l1.21,1.13c-1.54,3.65-4.02,6.54-7.45,8.66c-3.43,2.13-7.33,3.19-11.71,3.19
				c-4.15,0-7.99-0.98-11.52-2.93c-3.53-1.96-6.26-4.65-8.17-8.08c-1.92-3.43-2.87-7.37-2.87-11.83c0-7.3,2.24-13.34,6.73-18.13
				c4.48-4.79,10.14-7.18,16.98-7.18c2.29,0,5.2,0.4,8.72,1.21c1.98,0.47,3.35,0.7,4.11,0.7c1.17,0,1.99-0.48,2.46-1.45H196.51z"/>
			<path class="st4" d="M233.22,90.72v1.33c-1.96,0-3.31,0.54-4.07,1.61c-0.76,1.07-1.13,2.98-1.13,5.72v28.62
				c0,2.74,0.38,4.64,1.13,5.7c0.76,1.06,2.11,1.59,4.07,1.59v1.33h-16.51v-1.33c2.01,0,3.38-0.52,4.11-1.57
				c0.73-1.04,1.1-2.95,1.1-5.72V99.37c0-2.82-0.36-4.74-1.08-5.77c-0.72-1.03-2.09-1.55-4.13-1.55v-1.33H233.22z"/>
			<path class="st4" d="M282.29,92.95h-6.96v35.27c0,2.77,0.34,4.63,1.02,5.6c0.68,0.97,1.99,1.45,3.95,1.45v1.33h-16.23v-1.33
				c2.02,0,3.39-0.55,4.12-1.66s1.09-2.98,1.09-5.62V92.95h-6.65c-3.18,0-5.5,0.51-6.94,1.53c-1.45,1.02-2.26,2.7-2.45,5.05h-1.37
				V89h1.37c1.23,1.15,3.52,1.72,6.88,1.72h24.06c3.47,0,5.89-0.57,7.28-1.72h1.45v10.52h-0.9c-0.57-2.53-1.6-4.26-3.07-5.18
				C287.45,93.41,285.24,92.95,282.29,92.95z"/>
			<path class="st4" d="M328.2,90.72v1.33c-1.96,0-3.31,0.54-4.07,1.61c-0.76,1.07-1.13,2.98-1.13,5.72v28.62
				c0,2.74,0.38,4.64,1.13,5.7c0.76,1.06,2.11,1.59,4.07,1.59v1.33H311.7v-1.33c2.01,0,3.38-0.52,4.11-1.57
				c0.73-1.04,1.1-2.95,1.1-5.72V99.37c0-2.82-0.36-4.74-1.08-5.77c-0.72-1.03-2.09-1.55-4.13-1.55v-1.33H328.2z"/>
			<path class="st4" d="M386.2,125.53h1.37l-1.68,11.07H347.4v-1.21l30.23-42.44h-19.79c-2.89,0-4.98,0.39-6.26,1.15
				c-1.28,0.77-2.24,2.25-2.89,4.44h-1.29l0.74-7.82h37.32v1.41l-29.99,42.24h17.3c3.8,0,6.74-0.68,8.81-2.05
				C383.64,130.95,385.18,128.69,386.2,125.53z"/>
			<path class="st4" d="M426.37,136.6v-1.33c2.63,0,3.95-0.91,3.95-2.75c0-0.52-0.12-1.11-0.35-1.76l-4.26-12.74h-14.73l-3.13,9.21
				c-0.78,2.33-1.17,4.01-1.17,5.06c0,1.93,1.21,2.93,3.63,2.98v1.33h-11.85v-1.33c1.7-0.23,3.01-0.8,3.95-1.69
				c0.94-0.89,1.89-2.73,2.86-5.53l12.69-37.85h4.72l13.32,39.53c0.78,2.33,1.6,3.83,2.45,4.51c0.85,0.68,2.21,1.02,4.09,1.02v1.33
				H426.37z M411.82,115.2h12.94l-6.51-19.44L411.82,115.2z"/>
			<path class="st4" d="M486.66,92.05v-1.33h13.85v1.33c-2.22,0-3.76,0.52-4.62,1.56c-0.86,1.04-1.29,2.93-1.29,5.67v37.32h-1.41
				l-32.51-39.9v32.22c0,2.27,0.46,3.9,1.39,4.88c0.93,0.98,2.47,1.47,4.64,1.47v1.33h-13.92v-1.33c2.22,0,3.72-0.58,4.5-1.74
				c0.78-1.16,1.17-3.2,1.17-6.13v-26.86c0-2.9-0.53-4.98-1.58-6.24c-1.06-1.27-2.8-2.02-5.22-2.25v-1.33h11.78l28.83,35.71V99.6
				c0-2.82-0.4-4.78-1.19-5.89C490.27,92.6,488.8,92.05,486.66,92.05z"/>
			<path class="st4" d="M541.84,92.95h-6.96v35.27c0,2.77,0.34,4.63,1.02,5.6c0.68,0.97,1.99,1.45,3.95,1.45v1.33h-16.23v-1.33
				c2.02,0,3.39-0.55,4.12-1.66c0.73-1.11,1.09-2.98,1.09-5.62V92.95h-6.65c-3.18,0-5.5,0.51-6.94,1.53
				c-1.45,1.02-2.26,2.7-2.45,5.05h-1.37V89h1.37c1.23,1.15,3.52,1.72,6.88,1.72h24.06c3.47,0,5.89-0.57,7.28-1.72h1.45v10.52h-0.9
				c-0.57-2.53-1.6-4.26-3.07-5.18C546.99,93.41,544.78,92.95,541.84,92.95z"/>
		</g>
		<path class="st2" d="M124.85,117.84c0,0-0.08-0.08-0.21-0.21c-1.66,4.27-5.8,7.3-10.66,7.3c-6.32,0-11.44-5.12-11.44-11.44
			c0-6.32,5.12-11.44,11.44-11.44c4.8,0,8.9,2.95,10.6,7.14l66.5-73.01l-72.44,66.5l-4.52-99.5l-4.32,99.5L66.97,66.53l36.2,42.8
			L3.12,113.89l100.03,4.35l-35.94,42.12l42.47-36.05l4.52,57.95l4.42-57.93l73.34,67.16C191.96,191.48,124.86,117.85,124.85,117.84
			z"/>
		<g>
			<g>
				<polygon class="st3" points="276.42,176.52 270.9,176.52 270.9,172.4 275.7,172.4 275.7,170.44 270.9,170.44 270.9,166.5 
					276.11,166.5 276.11,164.53 268.59,164.53 268.59,178.47 276.42,178.47 				"/>
				<polygon class="st3" points="266.55,164.53 256.23,164.53 256.23,166.5 260.23,166.5 260.23,178.47 262.54,178.47 262.54,166.5 
					266.55,166.5 				"/>
				<path class="st3" d="M228.88,164.53h-3.14l-3.73,9.25c-0.15,0.36-0.34,0.9-0.58,1.63h-0.05c-0.08-0.35-0.27-0.88-0.54-1.59
					l-3.67-9.28h-3.26v13.94h2.14v-9c0-1.26-0.03-2.17-0.08-2.73h0.04c0.13,0.62,0.25,1.09,0.37,1.39l4.17,10.34h1.59l4.16-10.42
					c0.11-0.27,0.24-0.7,0.38-1.31h0.04c-0.09,1.07-0.14,1.97-0.14,2.71v9.02h2.29V164.53z"/>
				<path class="st3" d="M287.19,174.56c-0.2-0.3-0.38-0.57-0.55-0.8c-0.17-0.23-0.33-0.44-0.5-0.62c-0.17-0.18-0.35-0.36-0.54-0.53
					c-0.19-0.17-0.41-0.33-0.66-0.47v-0.04c0.47-0.12,0.9-0.3,1.28-0.52c0.38-0.23,0.7-0.5,0.97-0.82c0.27-0.32,0.48-0.69,0.62-1.1
					c0.15-0.41,0.22-0.86,0.22-1.36c0-0.63-0.12-1.18-0.34-1.65c-0.23-0.47-0.55-0.86-0.96-1.18c-0.41-0.32-0.89-0.55-1.44-0.71
					c-0.55-0.16-1.15-0.23-1.81-0.23h-4.59v13.94h2.3v-5.66h0.93c0.29,0,0.55,0.04,0.79,0.11c0.23,0.07,0.45,0.19,0.65,0.34
					c0.2,0.16,0.39,0.36,0.58,0.6c0.19,0.24,0.39,0.54,0.59,0.88l2.23,3.73h2.7L287.19,174.56z M284.11,170.77
					c-0.3,0.11-0.63,0.17-0.99,0.17h-1.93v-4.53h1.94c0.79,0,1.4,0.19,1.82,0.56c0.42,0.38,0.63,0.9,0.63,1.57
					c0,0.37-0.06,0.7-0.18,1c-0.12,0.3-0.29,0.55-0.52,0.76C284.67,170.51,284.41,170.66,284.11,170.77z"/>
				<path class="st3" d="M238.58,164.53h-2.6l-5.22,13.94h2.53l1.21-3.55h5.48l1.25,3.55h2.54L238.58,164.53z M235.09,173.04
					l1.91-5.56c0.07-0.21,0.14-0.51,0.2-0.88h0.04c0.07,0.4,0.13,0.69,0.19,0.88l1.93,5.56H235.09z"/>
				<path class="st3" d="M253.97,174.56c-0.2-0.3-0.38-0.57-0.55-0.8c-0.17-0.23-0.33-0.44-0.5-0.62c-0.17-0.18-0.35-0.36-0.54-0.53
					c-0.19-0.17-0.41-0.33-0.66-0.47v-0.04c0.47-0.12,0.9-0.3,1.28-0.52c0.38-0.23,0.7-0.5,0.97-0.82c0.27-0.32,0.48-0.69,0.62-1.1
					c0.15-0.41,0.22-0.86,0.22-1.36c0-0.63-0.12-1.18-0.34-1.65c-0.23-0.47-0.55-0.86-0.96-1.18c-0.41-0.32-0.89-0.55-1.44-0.71
					c-0.55-0.16-1.15-0.23-1.81-0.23h-4.59v13.94h2.3v-5.66h0.93c0.29,0,0.55,0.04,0.79,0.11c0.23,0.07,0.45,0.19,0.65,0.34
					c0.2,0.16,0.39,0.36,0.58,0.6c0.19,0.24,0.39,0.54,0.59,0.88l2.23,3.73h2.7L253.97,174.56z M250.89,170.77
					c-0.3,0.11-0.63,0.17-0.99,0.17h-1.93v-4.53h1.94c0.79,0,1.4,0.19,1.82,0.56c0.42,0.38,0.63,0.9,0.63,1.57
					c0,0.37-0.06,0.7-0.18,1c-0.12,0.3-0.29,0.55-0.52,0.76C251.45,170.51,251.19,170.66,250.89,170.77z"/>
				<path class="st3" d="M199.1,178.15c0.46,0.14,0.95,0.26,1.47,0.36c0.52,0.1,1.03,0.17,1.52,0.23c0.49,0.05,0.91,0.08,1.25,0.08
					c1.02,0,1.98-0.1,2.9-0.3c0.91-0.2,1.72-0.52,2.42-0.96c0.7-0.44,1.26-1.02,1.68-1.73c0.42-0.71,0.62-1.57,0.62-2.6
					c0-0.76-0.14-1.44-0.42-2.04c-0.28-0.6-0.66-1.14-1.13-1.63c-0.48-0.49-1.03-0.94-1.65-1.34c-0.63-0.41-1.29-0.79-2-1.16
					c-0.69-0.3-1.29-0.58-1.82-0.84c-0.52-0.26-0.97-0.53-1.33-0.8c-0.36-0.27-0.64-0.57-0.83-0.91c-0.19-0.33-0.28-0.72-0.28-1.17
					c0-0.48,0.12-0.89,0.37-1.23c0.24-0.34,0.56-0.62,0.95-0.83c0.39-0.22,0.83-0.37,1.33-0.47c0.49-0.09,0.99-0.14,1.49-0.14
					c1.81,0,3.29,0.42,4.44,1.25v-3.32c-0.97-0.48-2.52-0.72-4.64-0.72c-0.93,0-1.85,0.11-2.74,0.33c-0.9,0.22-1.69,0.56-2.4,1.02
					c-0.7,0.46-1.27,1.04-1.7,1.74c-0.43,0.7-0.64,1.53-0.64,2.48c0,0.77,0.12,1.45,0.37,2.02c0.25,0.58,0.59,1.09,1.03,1.55
					c0.44,0.46,0.96,0.87,1.55,1.25c0.59,0.38,1.24,0.75,1.92,1.12c0.64,0.29,1.24,0.57,1.8,0.84c0.56,0.27,1.05,0.55,1.46,0.84
					c0.42,0.29,0.74,0.61,0.97,0.97c0.23,0.35,0.35,0.77,0.35,1.25c0,0.9-0.35,1.58-1.04,2.05c-0.69,0.47-1.75,0.71-3.16,0.71
					c-0.41,0-0.85-0.04-1.33-0.13c-0.48-0.08-0.96-0.2-1.44-0.36c-0.48-0.16-0.94-0.35-1.37-0.57c-0.43-0.23-0.8-0.48-1.11-0.76
					v3.46C198.27,177.85,198.64,178.01,199.1,178.15"/>
			</g>
			<g>
				<path class="st3" d="M503.29,164.87h-4.02v13.94h3.86c2.4,0,4.31-0.65,5.74-1.96c1.43-1.31,2.14-3.04,2.14-5.19
					C511.01,167.14,508.43,164.87,503.29,164.87z M507.22,175.52c-0.91,0.89-2.17,1.34-3.8,1.34h-1.85v-10.02h1.93
					c3.38,0,5.07,1.63,5.07,4.89C508.57,173.36,508.12,174.62,507.22,175.52z"/>
				<polygon class="st3" points="496.79,176.86 491.28,176.86 491.28,172.74 496.07,172.74 496.07,170.78 491.28,170.78 
					491.28,166.84 496.48,166.84 496.48,164.87 488.96,164.87 488.96,178.81 496.79,178.81 				"/>
				<path class="st3" d="M484.86,174.9c-0.2-0.3-0.38-0.57-0.55-0.8c-0.17-0.23-0.33-0.44-0.5-0.62c-0.17-0.18-0.35-0.36-0.54-0.53
					c-0.19-0.17-0.41-0.33-0.66-0.47v-0.04c0.47-0.12,0.9-0.3,1.28-0.52c0.38-0.23,0.7-0.5,0.97-0.82c0.27-0.32,0.48-0.69,0.62-1.1
					c0.15-0.41,0.22-0.86,0.22-1.36c0-0.63-0.12-1.18-0.35-1.65c-0.23-0.47-0.55-0.86-0.96-1.18c-0.41-0.32-0.89-0.55-1.44-0.71
					c-0.55-0.16-1.15-0.23-1.81-0.23h-4.59v13.94h2.3v-5.66h0.93c0.29,0,0.55,0.04,0.79,0.11s0.45,0.19,0.65,0.34
					c0.2,0.16,0.39,0.36,0.58,0.6c0.19,0.24,0.39,0.54,0.59,0.88l2.23,3.73h2.7L484.86,174.9z M481.79,171.11
					c-0.3,0.11-0.63,0.17-0.99,0.17h-1.93v-4.53h1.94c0.79,0,1.4,0.19,1.82,0.56c0.42,0.38,0.63,0.9,0.63,1.57
					c0,0.37-0.06,0.7-0.18,1c-0.12,0.3-0.29,0.55-0.52,0.76C482.35,170.84,482.09,171,481.79,171.11z"/>
				<polygon class="st3" points="474.09,176.86 468.58,176.86 468.58,172.74 473.37,172.74 473.37,170.78 468.58,170.78 
					468.58,166.84 473.78,166.84 473.78,164.87 466.26,164.87 466.26,178.81 474.09,178.81 				"/>
				<path class="st3" d="M461.97,164.87l-3.52,10.56c-0.14,0.43-0.24,0.83-0.28,1.2h-0.04c-0.06-0.45-0.14-0.84-0.25-1.18
					l-3.44-10.58h-2.53l4.92,13.94h2.59l5.01-13.94H461.97z"/>
				<rect x="447.68" y="164.87" class="st3" width="2.38" height="13.94"/>
				<polygon class="st3" points="445.67,176.86 440.27,176.86 440.27,164.87 437.96,164.87 437.96,178.81 445.67,178.81 				"/>
				<polygon class="st3" points="435.48,176.86 429.96,176.86 429.96,172.74 434.76,172.74 434.76,170.78 429.96,170.78 
					429.96,166.84 435.16,166.84 435.16,164.87 427.65,164.87 427.65,178.81 435.48,178.81 				"/>
				<path class="st3" d="M413.51,158.53h-5.85v20.28h5.61c3.49,0,6.27-0.95,8.34-2.85c2.07-1.9,3.11-4.41,3.11-7.54
					C424.73,161.83,420.99,158.53,413.51,158.53z M419.22,174.02c-1.32,1.3-3.16,1.95-5.52,1.95h-2.69v-14.58h2.81
					c4.91,0,7.37,2.37,7.37,7.11C421.19,170.88,420.53,172.72,419.22,174.02z"/>
			</g>
			<path class="st3" d="M397.77,171.86c0.4-0.37,0.6-0.82,0.6-1.34c0-0.53-0.2-0.98-0.6-1.36c-0.4-0.38-0.89-0.57-1.46-0.57
				c-0.56,0-1.05,0.19-1.44,0.57c-0.4,0.38-0.59,0.83-0.59,1.36c0,0.52,0.2,0.96,0.59,1.34c0.4,0.37,0.88,0.56,1.44,0.56
				C396.88,172.41,397.37,172.23,397.77,171.86"/>
			<path class="st3" d="M304.2,171.86c0.4-0.37,0.6-0.82,0.6-1.34c0-0.53-0.2-0.98-0.6-1.36c-0.4-0.38-0.89-0.57-1.46-0.57
				c-0.56,0-1.05,0.19-1.44,0.57c-0.39,0.38-0.59,0.83-0.59,1.36c0,0.52,0.2,0.96,0.59,1.34c0.4,0.37,0.88,0.56,1.44,0.56
				C303.31,172.41,303.8,172.23,304.2,171.86"/>
			<g>
				<path class="st3" d="M385.89,174.9c-0.2-0.3-0.38-0.57-0.55-0.8c-0.17-0.23-0.33-0.44-0.5-0.62c-0.17-0.18-0.35-0.36-0.54-0.53
					c-0.19-0.17-0.41-0.33-0.66-0.47v-0.04c0.47-0.12,0.9-0.3,1.28-0.52c0.38-0.23,0.7-0.5,0.97-0.82c0.27-0.32,0.48-0.69,0.62-1.1
					c0.15-0.41,0.22-0.86,0.22-1.36c0-0.63-0.12-1.18-0.35-1.65c-0.23-0.47-0.55-0.86-0.96-1.18c-0.41-0.32-0.89-0.55-1.44-0.71
					c-0.55-0.16-1.15-0.23-1.81-0.23h-4.59v13.94h2.3v-5.66h0.93c0.29,0,0.55,0.04,0.79,0.11c0.23,0.07,0.45,0.19,0.65,0.34
					c0.2,0.16,0.39,0.36,0.58,0.6c0.19,0.24,0.39,0.54,0.59,0.88l2.23,3.73h2.7L385.89,174.9z M382.81,171.11
					c-0.3,0.11-0.63,0.17-0.99,0.17h-1.93v-4.53h1.94c0.79,0,1.4,0.19,1.82,0.56c0.42,0.38,0.63,0.9,0.63,1.57
					c0,0.37-0.06,0.7-0.18,1c-0.12,0.3-0.29,0.55-0.52,0.76C383.37,170.84,383.11,171,382.81,171.11z"/>
				<polygon class="st3" points="375.12,176.86 369.6,176.86 369.6,172.74 374.4,172.74 374.4,170.78 369.6,170.78 369.6,166.84 
					374.8,166.84 374.8,164.87 367.29,164.87 367.29,178.81 375.12,178.81 				"/>
				<path class="st3" d="M363.84,164.87h-2.23v8.98c0,0.88,0.03,1.51,0.1,1.88h-0.04c-0.08-0.16-0.25-0.44-0.53-0.86l-6.44-10h-2.69
					v13.94h2.24v-9.14c0-0.98-0.03-1.62-0.08-1.91h0.06c0.11,0.28,0.25,0.55,0.42,0.81l6.66,10.25h2.53V164.87z"/>
				<path class="st3" d="M344.92,164.87h-2.6l-5.22,13.94h2.53l1.21-3.55h5.48l1.25,3.55h2.54L344.92,164.87z M341.43,173.38
					l1.91-5.56c0.07-0.21,0.14-0.51,0.2-0.88h0.04c0.07,0.4,0.13,0.69,0.19,0.88l1.93,5.56H341.43z"/>
				<polygon class="st3" points="335.99,176.86 330.47,176.86 330.47,172.74 335.27,172.74 335.27,170.78 330.47,170.78 
					330.47,166.84 335.67,166.84 335.67,164.87 328.16,164.87 328.16,178.81 335.99,178.81 				"/>
				<polygon class="st3" points="326.01,175.97 318.15,175.97 318.15,158.53 314.79,158.53 314.79,178.81 326.01,178.81 				"/>
			</g>
		</g>
	</g>
</g>
<g id="Layer_10">
</g>
<g id="Layer_15">
</g>
<g id="Layer_16">
</g>
<g id="Layer_11">
</g>
<g id="Layer_12">
</g>
<g id="Layer_13">
</g>
<g id="Layer_14">
</g>
</svg>
